<?xml version="1.0" standalone="no"?><!DOCTYPE svg PUBLIC "-//W3C//DTD SVG 1.1//EN" "http://www.w3.org/Graphics/SVG/1.1/DTD/svg11.dtd"><svg t="1569206923534" class="icon" viewBox="0 0 1024 1024" version="1.1" xmlns="http://www.w3.org/2000/svg" p-id="1373" xmlns:xlink="http://www.w3.org/1999/xlink" width="200" height="200"><defs><style type="text/css"></style></defs><path d="M622.276923 586.830769c-15.753846 0-27.569231-11.815385-27.569231-27.569231s11.815385-27.569231 27.569231-27.56923c118.153846 0 216.615385-98.461538 216.615385-216.615385s-98.461538-216.615385-216.615385-216.615385c-15.753846 0-27.569231-11.815385-27.569231-27.56923s11.815385-27.569231 27.569231-27.569231c149.661538 0 271.753846 122.092308 271.753846 271.753846s-122.092308 271.753846-271.753846 271.753846z" p-id="1374"></path><path d="M996.430769 957.046154c-15.753846 0-27.569231-11.815385-27.569231-27.569231 0-185.107692-153.6-338.707692-346.584615-338.707692-15.753846 0-27.569231-11.815385-27.569231-27.569231s11.815385-27.569231 27.569231-27.569231c220.553846 0 401.723077 177.230769 401.723077 393.846154 0 15.753846-11.815385 27.569231-27.569231 27.569231z" p-id="1375"></path><path d="M401.723077 590.769231c-149.661538 0-271.753846-122.092308-271.753846-271.753846 0-149.661538 122.092308-271.753846 271.753846-271.753847s271.753846 122.092308 271.753846 271.753847c0 149.661538-122.092308 271.753846-271.753846 271.753846z m0-488.369231c-118.153846 0-216.615385 98.461538-216.615385 216.615385s98.461538 216.615385 216.615385 216.615384 216.615385-98.461538 216.615385-216.615384-98.461538-216.615385-216.615385-216.615385z" p-id="1376"></path><path d="M779.815385 957.046154c-15.753846 0-27.569231-11.815385-27.569231-27.569231 0-185.107692-153.6-338.707692-346.584616-338.707692s-346.584615 153.6-346.584615 338.707692c0 15.753846-11.815385 27.569231-27.569231 27.569231s-27.569231-11.815385-27.56923-27.569231c0-216.615385 181.169231-393.846154 401.723076-393.846154s401.723077 177.230769 401.723077 393.846154c0 15.753846-11.815385 27.569231-27.56923 27.569231z" p-id="1377"></path></svg>