<?xml version="1.0" encoding="utf-8"?>
<!-- Generator: Adobe Illustrator 23.0.0, SVG Export Plug-In . SVG Version: 6.00 Build 0)  -->
<svg version="1.1" id="图层_1" xmlns="http://www.w3.org/2000/svg" xmlns:xlink="http://www.w3.org/1999/xlink" x="0px" y="0px"
	 viewBox="0 0 26 26" style="enable-background:new 0 0 26 26;" xml:space="preserve">
<style type="text/css">
	.st0{fill:#666666;}
</style>
<g>
	<path class="st0" d="M15.8,14.9c-0.4,0-0.7-0.3-0.7-0.7s0.3-0.7,0.7-0.7c3,0,5.5-2.5,5.5-5.5s-2.5-5.5-5.5-5.5
		c-0.4,0-0.7-0.3-0.7-0.7s0.3-0.7,0.7-0.7c3.8,0,6.9,3.1,6.9,6.9S19.6,14.9,15.8,14.9z"/>
	<path class="st0" d="M25.3,24.3c-0.4,0-0.7-0.3-0.7-0.7c0-4.7-3.9-8.6-8.8-8.6c-0.4,0-0.7-0.3-0.7-0.7s0.3-0.7,0.7-0.7
		c5.6,0,10.2,4.5,10.2,10C26,24,25.7,24.3,25.3,24.3z"/>
</g>
<g>
	<path class="st0" d="M10.2,15c-3.8,0-6.9-3.1-6.9-6.9c0-3.8,3.1-6.9,6.9-6.9s6.9,3.1,6.9,6.9C17.1,11.9,14,15,10.2,15z M10.2,2.6
		c-3,0-5.5,2.5-5.5,5.5s2.5,5.5,5.5,5.5s5.5-2.5,5.5-5.5S13.2,2.6,10.2,2.6z"/>
	<path class="st0" d="M19.8,24.3c-0.4,0-0.7-0.3-0.7-0.7c0-4.7-3.9-8.6-8.8-8.6s-8.8,3.9-8.8,8.6c0,0.4-0.3,0.7-0.7,0.7
		S0.1,24,0.1,23.6c0-5.5,4.6-10,10.2-10s10.2,4.5,10.2,10C20.5,24,20.2,24.3,19.8,24.3z"/>
</g>
</svg>
