<?xml version="1.0" encoding="utf-8"?>
<!-- Generator: Adobe Illustrator 23.0.0, SVG Export Plug-In . SVG Version: 6.00 Build 0)  -->
<svg version="1.1" id="图层_1" xmlns="http://www.w3.org/2000/svg" xmlns:xlink="http://www.w3.org/1999/xlink" x="0px" y="0px"
	 viewBox="0 0 28 20" style="enable-background:new 0 0 28 20;" xml:space="preserve">
<style type="text/css">
	.st0{fill:#666666;}
</style>
<path class="st0" d="M26.6,2.8H1.4C0.6,2.8,0,2.2,0,1.4v0C0,0.6,0.6,0,1.4,0h25.2C27.4,0,28,0.6,28,1.4v0C28,2.2,27.4,2.8,26.6,2.8z
	"/>
<path class="st0" d="M26.6,11.4H1.4C0.6,11.4,0,10.8,0,10v0c0-0.8,0.6-1.4,1.4-1.4h25.2c0.8,0,1.4,0.6,1.4,1.4v0
	C28,10.8,27.4,11.4,26.6,11.4z"/>
<path class="st0" d="M26.6,20H1.4C0.6,20,0,19.4,0,18.6v0c0-0.8,0.6-1.4,1.4-1.4h25.2c0.8,0,1.4,0.6,1.4,1.4v0
	C28,19.4,27.4,20,26.6,20z"/>
</svg>
