<?xml version="1.0" encoding="utf-8"?>
<!-- Generator: Adobe Illustrator 23.0.0, SVG Export Plug-In . SVG Version: 6.00 Build 0)  -->
<svg version="1.1" id="图层_1" xmlns="http://www.w3.org/2000/svg" xmlns:xlink="http://www.w3.org/1999/xlink" x="0px" y="0px"
	 viewBox="0 0 24 26" style="enable-background:new 0 0 24 26;" xml:space="preserve">
<style type="text/css">
	.st0{fill:#666666;}
</style>
<path class="st0" d="M20.6,7.7v14.9c0,0.1-0.1,0.2-0.2,0.2H3.5c-0.1,0-0.2-0.1-0.2-0.2V3.7l0,0c0-0.1,0.1-0.2,0.2-0.2h13.1V2.3H3.5
	C2.6,2.3,2,3,2,3.7v18.8c0,0.8,0.7,1.3,1.4,1.3h17c0.8,0,1.4-0.7,1.4-1.3V7.7H20.6z"/>
<path class="st0" d="M16.7,15.9H7.1c-0.3,0-0.7-0.3-0.7-0.7l0,0c0-0.3,0.3-0.7,0.7-0.7h9.6c0.3,0,0.7,0.3,0.7,0.7l0,0
	C17.3,15.7,17.1,15.9,16.7,15.9z"/>
<path class="st0" d="M16.7,19.2H7.1c-0.3,0-0.6-0.3-0.6-0.7l0,0c0-0.3,0.3-0.7,0.7-0.7h9.6c0.3,0,0.7,0.3,0.7,0.7l0,0
	C17.3,18.9,17.1,19.2,16.7,19.2z"/>
<path class="st0" d="M13.5,11.7c-0.1,0-0.2-0.1-0.2-0.2l0.3-2.3l4.8-5.2l2,1.8l-4.8,5.3C15.7,11.2,13.5,11.7,13.5,11.7z"/>
<path class="st0" d="M21.1,5.2l-2-1.8l0.7-0.8c0.3-0.4,1.1-0.4,1.5-0.1l0.3,0.3C22,3.2,22,3.9,21.7,4.4L21.1,5.2z"/>
</svg>
