<?xml version="1.0" standalone="no"?><!DOCTYPE svg PUBLIC "-//W3C//DTD SVG 1.1//EN" "http://www.w3.org/Graphics/SVG/1.1/DTD/svg11.dtd"><svg t="1573612565542" class="icon" viewBox="0 0 1024 1024" version="1.1" xmlns="http://www.w3.org/2000/svg" p-id="1185" xmlns:xlink="http://www.w3.org/1999/xlink" width="200" height="200"><defs><style type="text/css"></style></defs><path d="M248.685714 563.2c-21.942857 0-43.885714 21.942857-43.885714 43.885714s21.942857 43.885714 43.885714 43.885715S292.571429 625.371429 292.571429 607.085714s-21.942857-43.885714-43.885715-43.885714zM775.314286 563.2c-21.942857 0-43.885714 21.942857-43.885715 43.885714s21.942857 43.885714 43.885715 43.885715 43.885714-21.942857 43.885714-43.885715-18.285714-43.885714-43.885714-43.885714zM157.257143 936.228571c-10.971429 0-21.942857-10.971429-21.942857-21.942857v-135.314285c0-10.971429 10.971429-21.942857 21.942857-21.942858s25.6 10.971429 25.6 21.942858V914.285714c0 14.628571-14.628571 21.942857-25.6 21.942857zM866.742857 936.228571c-10.971429 0-21.942857-10.971429-21.942857-21.942857v-135.314285c0-10.971429 10.971429-21.942857 21.942857-21.942858s21.942857 10.971429 21.942857 21.942858V914.285714c0 14.628571-10.971429 21.942857-21.942857 21.942857z" p-id="1186"></path><path d="M936.228571 471.771429c21.942857 0 36.571429 18.285714 36.571429 36.571428V694.857143c0 21.942857-18.285714 36.571429-36.571429 36.571428H87.771429c-21.942857 0-36.571429-18.285714-36.571429-36.571428v-182.857143c0-21.942857 18.285714-36.571429 36.571429-36.571429h848.457142m0-54.857142H87.771429C40.228571 420.571429 0 460.8 0 512v186.514286c0 47.542857 40.228571 87.771429 87.771429 87.771428h844.8c47.542857 0 87.771429-40.228571 87.771428-87.771428V512c3.657143-51.2-36.571429-91.428571-84.114286-91.428571z" p-id="1187"></path><path d="M738.742857 157.257143c18.285714 0 32.914286 10.971429 40.228572 29.257143l84.114285 234.057143H157.257143l84.114286-234.057143c7.314286-18.285714 21.942857-29.257143 40.228571-29.257143h457.142857m0-51.2H285.257143c-40.228571 0-76.8 25.6-87.771429 65.828571l-106.057143 285.257143c-3.657143 7.314286 3.657143 18.285714 10.971429 18.285714h819.2c7.314286 0 14.628571-10.971429 10.971429-18.285714l-106.057143-285.257143c-10.971429-40.228571-47.542857-65.828571-87.771429-65.828571z" p-id="1188"></path></svg>