<?xml version="1.0" encoding="utf-8"?>
<!-- Generator: Adobe Illustrator 23.0.0, SVG Export Plug-In . SVG Version: 6.00 Build 0)  -->
<svg version="1.1" id="图层_1" xmlns="http://www.w3.org/2000/svg" xmlns:xlink="http://www.w3.org/1999/xlink" x="0px" y="0px"
	 viewBox="0 0 28 28" style="enable-background:new 0 0 28 28;" xml:space="preserve">
<style type="text/css">
	.st0{fill:#666666;}
</style>
<g>
	<g>
		<path class="st0" d="M6.8,15.4c-0.6,0-1.2,0.6-1.2,1.2c0,0.6,0.6,1.2,1.2,1.2S8,17.1,8,16.6S7.4,15.4,6.8,15.4L6.8,15.4z"/>
	</g>
	<g>
		<path class="st0" d="M21.2,15.4c-0.6,0-1.2,0.6-1.2,1.2c0,0.6,0.6,1.2,1.2,1.2c0.6,0,1.2-0.6,1.2-1.2S21.9,15.4,21.2,15.4
			L21.2,15.4z"/>
	</g>
</g>
<g>
	<path class="st0" d="M4.3,25.6L4.3,25.6c-0.3,0-0.6-0.3-0.6-0.6v-3.7c0-0.3,0.3-0.6,0.6-0.6l0,0C4.6,20.7,5,21,5,21.3V25
		C5,25.4,4.6,25.6,4.3,25.6z"/>
	<path class="st0" d="M23.7,25.6L23.7,25.6c-0.3,0-0.6-0.3-0.6-0.6v-3.7c0-0.3,0.3-0.6,0.6-0.6l0,0c0.3,0,0.6,0.3,0.6,0.6V25
		C24.3,25.4,24,25.6,23.7,25.6z"/>
</g>
<g>
	<path class="st0" d="M25.6,12.9c0.6,0,1,0.5,1,1v5.1c0,0.6-0.5,1-1,1H2.4c-0.6,0-1-0.5-1-1V14c0-0.6,0.5-1,1-1H25.6 M25.6,11.5H2.4
		C1.1,11.5,0,12.6,0,14v5.1c0,1.3,1.1,2.4,2.4,2.4h23.1c1.3,0,2.4-1.1,2.4-2.4V14C28,12.6,26.9,11.5,25.6,11.5L25.6,11.5z"/>
</g>
<g>
	<path class="st0" d="M20.2,4.3c0.5,0,0.9,0.3,1.1,0.8l2.3,6.4H4.3l2.3-6.4c0.2-0.5,0.6-0.8,1.1-0.8H20.2 M20.2,2.9H7.8
		c-1.1,0-2.1,0.7-2.4,1.8l-2.9,7.8c-0.1,0.2,0.1,0.5,0.3,0.5h22.4c0.2,0,0.4-0.3,0.3-0.5l-2.9-7.8C22.3,3.6,21.3,2.9,20.2,2.9
		L20.2,2.9z"/>
</g>
</svg>
