<?xml version="1.0" encoding="utf-8"?>
<!-- Generator: Adobe Illustrator 23.0.0, SVG Export Plug-In . SVG Version: 6.00 Build 0)  -->
<svg version="1.1" id="图层_1" xmlns="http://www.w3.org/2000/svg" xmlns:xlink="http://www.w3.org/1999/xlink" x="0px" y="0px"
	 viewBox="0 0 26 26" style="enable-background:new 0 0 26 26;" xml:space="preserve">
<style type="text/css">
	.st0{fill:none;stroke:#666666;stroke-width:1.4173;stroke-linecap:round;stroke-miterlimit:10;}
	.st1{fill:#666666;}
</style>
<g>
	<path class="st0" d="M2.8,21.1c-0.1-1.6,1.6-2.9,4.3-2.9h16"/>
	<g>
		<path class="st1" d="M12.1,3.2v6.6l-1.2-1.2c-0.3-0.3-0.5-0.4-0.7-0.4l0,0c-0.3,0-0.5,0.2-0.6,0.4l-1.1,1V3.2L12.1,3.2 M13.1,2.1
			H7.3v9.5c0,0.2,0.2,0.3,0.3,0.3s0.2,0,0.3-0.1l2.4-2.6l2.6,2.6c0.1,0.1,0.2,0.1,0.3,0.1c0.2,0,0.3-0.1,0.3-0.3V2.1H13.1z"/>
	</g>
	<g>
		<path class="st1" d="M22.6,3.4L22.6,3.4v19.3l0,0H5.8c-1.4,0-2.5-1.1-2.5-2.5V5.8c0-1.3,1.1-2.4,2.4-2.4H22.6 M22.6,2.1H5.7
			C3.7,2.1,2,3.8,2,5.8v14.5c0,2.1,1.7,3.8,3.8,3.8h16.8c0.7,0,1.4-0.6,1.4-1.4V3.4C24,2.7,23.3,2.1,22.6,2.1L22.6,2.1z"/>
	</g>
</g>
</svg>
