<?xml version="1.0" standalone="no"?><!DOCTYPE svg PUBLIC "-//W3C//DTD SVG 1.1//EN" "http://www.w3.org/Graphics/SVG/1.1/DTD/svg11.dtd"><svg t="1569207011139" class="icon" viewBox="0 0 1024 1024" version="1.1" xmlns="http://www.w3.org/2000/svg" p-id="1600" xmlns:xlink="http://www.w3.org/1999/xlink" width="200" height="200"><defs><style type="text/css"></style></defs><path d="M476.553846 126.030769v259.938462l-47.261538-47.261539c-11.815385-11.815385-19.692308-15.753846-27.569231-15.753846-11.815385 0-19.692308 7.876923-23.630769 15.753846l-43.323077 39.384616V126.030769h141.784615m39.384616-43.323077H287.507692v374.153846c0 7.876923 7.876923 11.815385 11.815385 11.815385s7.876923 0 11.815385-3.938461l94.523076-102.4 102.4 102.4c3.938462 3.938462 7.876923 3.938462 11.815385 3.938461 7.876923 0 11.815385-3.938462 11.815385-11.815385V82.707692h-15.753846z" p-id="1601"></path><path d="M890.092308 133.907692v760.123077H228.430769c-55.138462 0-98.461538-43.323077-98.461538-98.461538V228.430769c0-51.2 43.323077-94.523077 94.523077-94.523077h665.6m0-51.2H224.492308C145.723077 82.707692 78.769231 149.661538 78.769231 228.430769v571.076923c0 82.707692 66.953846 149.661538 149.661538 149.661539h661.661539c27.569231 0 55.138462-23.630769 55.138461-55.138462V133.907692c0-27.569231-27.569231-51.2-55.138461-51.2z" p-id="1602"></path></svg>