<?xml version="1.0" encoding="utf-8"?>
<!-- Generator: Adobe Illustrator 23.0.0, SVG Export Plug-In . SVG Version: 6.00 Build 0)  -->
<svg version="1.1" id="图层_1" xmlns="http://www.w3.org/2000/svg" xmlns:xlink="http://www.w3.org/1999/xlink" x="0px" y="0px"
	 viewBox="0 0 22 26" style="enable-background:new 0 0 22 26;" xml:space="preserve">
<style type="text/css">
	.st0{fill:#5FAFE4;}
</style>
<path class="st0" d="M11,3.3c4,0,7.4,3.4,7.4,7.6c0,2.7-3.6,7.5-6.8,10.8c-0.3,0.4-0.9,0.4-1.2,0c-3.1-3.3-6.8-8.2-6.8-10.8
	C3.6,6.7,6.8,3.3,11,3.3 M11,14.7c2.8,0,5-2.9,3.7-5.7c-0.4-0.9-1.1-1.6-2-2c-2.9-1.3-5.7,0.9-5.7,3.7C6.9,12.9,8.8,14.7,11,14.7
	 M11,1.7c-5,0-9,4.1-9,9.2c0,4.3,6.4,11.1,8.4,13.1c0.3,0.3,0.9,0.3,1.2,0c2-2,8.4-8.8,8.4-13.1C19.9,5.8,15.9,1.7,11,1.7z M11,13.1
	c-1.3,0-2.5-1.1-2.5-2.5S9.6,8.2,11,8.2s2.5,1.1,2.5,2.5S12.3,13.1,11,13.1z"/>
</svg>
