<?xml version="1.0" encoding="utf-8"?>
<!-- Generator: Adobe Illustrator 23.0.0, SVG Export Plug-In . SVG Version: 6.00 Build 0)  -->
<svg version="1.1" id="图层_1" xmlns="http://www.w3.org/2000/svg" xmlns:xlink="http://www.w3.org/1999/xlink" x="0px" y="0px"
	 viewBox="0 0 26 26" style="enable-background:new 0 0 26 26;" xml:space="preserve">
<style type="text/css">
	.st0{fill:#666666;}
</style>
<g>
	<path class="st0" d="M18.3,26H4.2c-2,0-3.6-1.6-3.6-3.6V3.6c0-2,1.6-3.6,3.6-3.6h14.1c2,0,3.6,1.6,3.6,3.6v9.3
		c0,0.4-0.3,0.8-0.8,0.8c-0.4,0-0.8-0.3-0.8-0.8V3.6c0-1.1-0.9-2.1-2.1-2.1h-14c-1.1,0-2.1,0.9-2.1,2.1v18.8c0,1.1,0.9,2.1,2.1,2.1
		h14.1c1.1,0,2.1-0.9,2.1-2.1v-0.9c0-0.4,0.3-0.8,0.8-0.8c0.4,0,0.8,0.3,0.8,0.8v0.9C21.9,24.4,20.3,26,18.3,26z"/>
	<path class="st0" d="M14.8,13.3H7.9c-1.1,0-1.9-0.9-1.9-1.9V5.6c0-1.1,0.9-1.9,1.9-1.9h6.9c1.1,0,1.9,0.9,1.9,1.9v5.8
		C16.7,12.5,15.8,13.3,14.8,13.3z M7.9,5.2c-0.2,0-0.4,0.2-0.4,0.4v5.8c0,0.2,0.2,0.4,0.4,0.4h6.9c0.2,0,0.4-0.2,0.4-0.4V5.6
		c0-0.2-0.2-0.4-0.4-0.4H7.9z"/>
	<path class="st0" d="M23.7,19.3H7.9c-1.1,0-1.9-0.9-1.9-1.9s0.9-1.9,1.9-1.9h15.8c1.1,0,1.9,0.9,1.9,1.9S24.8,19.3,23.7,19.3z
		 M7.9,17c-0.2,0-0.4,0.2-0.4,0.4s0.2,0.4,0.4,0.4h15.8c0.2,0,0.4-0.2,0.4-0.4S23.9,17,23.7,17H7.9z"/>
</g>
</svg>
