<?xml version="1.0" standalone="no"?><!DOCTYPE svg PUBLIC "-//W3C//DTD SVG 1.1//EN" "http://www.w3.org/Graphics/SVG/1.1/DTD/svg11.dtd"><svg t="1572251443136" class="icon" viewBox="0 0 1024 1024" version="1.1" xmlns="http://www.w3.org/2000/svg" p-id="875" xmlns:xlink="http://www.w3.org/1999/xlink" width="200" height="200"><defs><style type="text/css"></style></defs><path d="M720.738462 1024H165.415385c-78.769231 0-141.784615-63.015385-141.784616-141.784615V141.784615C23.630769 63.015385 86.646154 0 165.415385 0h555.323077c78.769231 0 141.784615 63.015385 141.784615 141.784615v366.276923c0 15.753846-11.815385 31.507692-31.507692 31.507693-15.753846 0-31.507692-11.815385-31.507693-31.507693V141.784615c0-43.323077-35.446154-82.707692-82.707692-82.707692h-551.384615c-43.323077 0-82.707692 35.446154-82.707693 82.707692v740.43077c0 43.323077 35.446154 82.707692 82.707693 82.707692h555.323077c43.323077 0 82.707692-35.446154 82.707692-82.707692v-35.446154c0-15.753846 11.815385-31.507692 31.507692-31.507693 15.753846 0 31.507692 11.815385 31.507692 31.507693v35.446154c-3.938462 78.769231-66.953846 141.784615-145.723076 141.784615z" p-id="876"></path><path d="M582.892308 523.815385H311.138462c-43.323077 0-74.830769-35.446154-74.83077-74.83077V220.553846c0-43.323077 35.446154-74.830769 74.83077-74.830769h271.753846c43.323077 0 74.830769 35.446154 74.830769 74.830769v228.430769c0 43.323077-35.446154 74.830769-74.830769 74.83077zM311.138462 204.8c-7.876923 0-15.753846 7.876923-15.753847 15.753846v228.430769c0 7.876923 7.876923 15.753846 15.753847 15.753847h271.753846c7.876923 0 15.753846-7.876923 15.753846-15.753847V220.553846c0-7.876923-7.876923-15.753846-15.753846-15.753846H311.138462zM933.415385 760.123077H311.138462c-43.323077 0-74.830769-35.446154-74.83077-74.830769s35.446154-74.830769 74.83077-74.83077h622.276923c43.323077 0 74.830769 35.446154 74.830769 74.83077s-31.507692 74.830769-74.830769 74.830769zM311.138462 669.538462c-7.876923 0-15.753846 7.876923-15.753847 15.753846s7.876923 15.753846 15.753847 15.753846h622.276923c7.876923 0 15.753846-7.876923 15.753846-15.753846s-7.876923-15.753846-15.753846-15.753846H311.138462z" p-id="877"></path></svg>