<?xml version="1.0" encoding="utf-8"?>
<!-- Generator: Adobe Illustrator 23.0.0, SVG Export Plug-In . SVG Version: 6.00 Build 0)  -->
<svg version="1.1" id="图层_1" xmlns="http://www.w3.org/2000/svg" xmlns:xlink="http://www.w3.org/1999/xlink" x="0px" y="0px"
	 viewBox="0 0 28 20" style="enable-background:new 0 0 28 20;" xml:space="preserve">
<style type="text/css">
	.st0{fill:#BFBFBF;}
</style>
<path class="st0" d="M27.2,1.7H0.8C0.4,1.7,0,1.3,0,0.8v0C0,0.4,0.4,0,0.8,0l26.3,0C27.6,0,28,0.4,28,0.8v0
	C28,1.3,27.6,1.7,27.2,1.7z"/>
<path class="st0" d="M27.2,10.8H0.8C0.4,10.8,0,10.5,0,10v0c0-0.5,0.4-0.8,0.8-0.8h26.3c0.5,0,0.8,0.4,0.8,0.8v0
	C28,10.5,27.6,10.8,27.2,10.8z"/>
<path class="st0" d="M27.2,20H0.8C0.4,20,0,19.6,0,19.2v0c0-0.5,0.4-0.8,0.8-0.8h26.3c0.5,0,0.8,0.4,0.8,0.8v0
	C28,19.6,27.6,20,27.2,20z"/>
</svg>
