<?xml version="1.0" encoding="utf-8"?>
<!-- Generator: Adobe Illustrator 23.0.0, SVG Export Plug-In . SVG Version: 6.00 Build 0)  -->
<svg version="1.1" id="图层_1" xmlns="http://www.w3.org/2000/svg" xmlns:xlink="http://www.w3.org/1999/xlink" x="0px" y="0px"
	 viewBox="0 0 26 26" style="enable-background:new 0 0 26 26;" xml:space="preserve">
<style type="text/css">
	.st0{fill:none;stroke:#666666;stroke-width:1.4173;stroke-miterlimit:10;}
</style>
<path class="st0" d="M11.4,25.2H7c-0.9,0-1.8-0.4-2.4-1.2c-0.6-0.7-0.9-1.6-0.9-2.5V15H2.9c-1.1,0-1.8-0.7-2-1.3
	C0.6,13.1,0.7,12,1.7,11l8.8-9.2c0.6-0.7,1.5-1.1,2.5-1.1c0.9,0,1.8,0.4,2.5,1.1l0,0l8.8,9.2c1.1,1.1,1,2.2,0.8,2.7
	c-0.2,0.6-0.9,1.3-2,1.3h-0.7v6.5c0,0.9-0.3,1.8-0.9,2.5c-0.6,0.7-1.5,1.1-2.4,1.1h-4.3l0-8.3c0-0.3-0.2-0.5-0.5-0.5l-2.3,0
	c-0.3,0-0.5,0.2-0.5,0.5L11.4,25.2z" fill="#fff"/>
</svg>
