<?xml version="1.0" standalone="no"?><!DOCTYPE svg PUBLIC "-//W3C//DTD SVG 1.1//EN" "http://www.w3.org/Graphics/SVG/1.1/DTD/svg11.dtd"><svg t="1569206842863" class="icon" viewBox="0 0 1024 1024" version="1.1" xmlns="http://www.w3.org/2000/svg" p-id="1149" xmlns:xlink="http://www.w3.org/1999/xlink" width="200" height="200"><defs><style type="text/css"></style></defs><path d="M752.54272 1020.061538h-196.923077v-346.584615h-74.830769l-3.938462 346.584615H275.988874c-47.261538 0-90.584615-19.692308-118.153846-55.138461-27.569231-31.507692-39.384615-70.892308-39.384616-114.215385v-228.430769h-3.938461c-55.138462 0-94.523077-35.446154-106.338462-66.953846-15.753846-35.446154-11.815385-90.584615 39.384616-137.846154L394.14272 55.138462c27.569231-31.507692 70.892308-51.2 118.153846-51.2 43.323077 0 86.646154 19.692308 118.153846 51.2l346.584616 362.338461c47.261538 47.261538 51.2 102.4 35.446154 137.846154-11.815385 31.507692-47.261538 66.953846-102.4 66.953846v228.430769c0 43.323077-15.753846 86.646154-43.323077 118.153846-27.569231 31.507692-70.892308 51.2-114.215385 51.2z m-141.784615-55.138461h141.784615c27.569231 0 55.138462-11.815385 74.830769-35.446154 19.692308-19.692308 27.569231-51.2 27.569231-78.769231v-283.56923h55.138462c31.507692 0 47.261538-19.692308 51.2-31.507693 3.938462-3.938462 15.753846-39.384615-23.63077-78.769231L591.065797 94.523077c-23.630769-23.630769-51.2-35.446154-78.769231-35.446154-31.507692 0-59.076923 11.815385-78.769231 35.446154l-346.584615 362.338461c-31.507692 31.507692-31.507692 63.015385-27.569231 74.83077v3.938461c3.938462 11.815385 23.630769 31.507692 51.2 31.507693h59.076923v283.56923c0 31.507692 11.815385 59.076923 27.569231 78.769231 19.692308 27.569231 51.2 35.446154 74.830769 35.446154h145.723077l3.938462-299.323077c0-27.569231 19.692308-47.261538 47.261538-47.261538h90.584616c27.569231 0 47.261538 19.692308 47.261538 47.261538v299.323077z m-129.969231-299.323077z" p-id="1150"></path></svg>