<?xml version="1.0" encoding="utf-8"?>
<!-- Generator: Adobe Illustrator 23.0.0, SVG Export Plug-In . SVG Version: 6.00 Build 0)  -->
<svg version="1.1" id="图层_1" xmlns="http://www.w3.org/2000/svg" xmlns:xlink="http://www.w3.org/1999/xlink" x="0px" y="0px"
	 viewBox="0 0 26 26" style="enable-background:new 0 0 26 26;" xml:space="preserve">
<style type="text/css">
	.st0{fill:#666666;}
</style>
<g>
	<path class="st0" d="M19.1,25.9h-5v-8.8h-1.9l-0.1,8.8H7c-1.2,0-2.3-0.5-3-1.4c-0.7-0.8-1-1.8-1-2.9v-5.8H2.9
		c-1.4,0-2.4-0.9-2.7-1.7c-0.4-0.9-0.3-2.3,1-3.5L10,1.4c0.7-0.8,1.8-1.3,3-1.3c1.1,0,2.2,0.5,3,1.3l8.8,9.2
		c1.2,1.2,1.3,2.6,0.9,3.5c-0.3,0.8-1.2,1.7-2.6,1.7v5.8c0,1.1-0.4,2.2-1.1,3C21.3,25.4,20.2,25.9,19.1,25.9z M15.5,24.5h3.6
		c0.7,0,1.4-0.3,1.9-0.9c0.5-0.5,0.7-1.3,0.7-2v-7.2h1.4c0.8,0,1.2-0.5,1.3-0.8c0.1-0.1,0.4-1-0.6-2L15,2.4c-0.6-0.6-1.3-0.9-2-0.9
		c-0.8,0-1.5,0.3-2,0.9l-8.8,9.2c-0.8,0.8-0.8,1.6-0.7,1.9l0,0.1c0.1,0.3,0.6,0.8,1.3,0.8h1.5v7.2c0,0.8,0.3,1.5,0.7,2
		c0.5,0.7,1.3,0.9,1.9,0.9h3.7l0.1-7.6c0-0.7,0.5-1.2,1.2-1.2h2.3c0.7,0,1.2,0.5,1.2,1.2V24.5z M12.2,16.9L12.2,16.9
		C12.2,16.9,12.2,16.9,12.2,16.9z"/>
</g>
</svg>
