<?xml version="1.0" encoding="utf-8"?>
<!-- Generator: Adobe Illustrator 23.0.0, SVG Export Plug-In . SVG Version: 6.00 Build 0)  -->
<svg version="1.1" id="图层_1" xmlns="http://www.w3.org/2000/svg" xmlns:xlink="http://www.w3.org/1999/xlink" x="0px" y="0px"
	 viewBox="0 0 26 26" style="enable-background:new 0 0 26 26;" xml:space="preserve">
<style type="text/css">
	.st0{fill:#666666;}
</style>
<path class="st0" d="M25.3,24.4h-1V11c0-1.3-1-2.3-2.1-2.3h-4.5c-0.4,0-0.7,0.5-0.7,0.7s0.4,0.8,0.7,0.8h4.4c0.3,0,0.6,0.4,0.6,0.7
	v13.4H18V2.4C18,1.1,17,0,15.8,0H4.2C3,0,2,1.1,2,2.4v22.1H0.7C0.4,24.5,0,25,0,25.2S0.4,26,0.7,26h24.5c0.4,0,0.7-0.5,0.7-0.7
	C26,24.8,25.8,24.4,25.3,24.4z M16.5,2.4v22.1h-13V2.4c0-0.3,0.4-0.7,0.7-0.7H16C16.3,1.8,16.5,2.1,16.5,2.4z"/>
<path class="st0" d="M13.2,12.1H6.8c-0.5,0-0.8,0.5-0.8,0.7c0,0.5,0.5,0.7,0.8,0.7h6.4c0.5,0,0.8-0.5,0.8-0.7
	C14,12.5,13.6,12.1,13.2,12.1z M13.2,16.6H6.8c-0.5,0-0.8,0.5-0.8,0.7c0,0.5,0.3,0.9,0.8,0.9h6.4c0.5,0,0.8-0.5,0.8-0.7
	C14,17.2,13.6,16.6,13.2,16.6z M13.2,6.8H6.8c-0.5,0-0.8,0.5-0.8,0.7c0,0.4,0.5,0.8,0.8,0.8h6.4c0.5,0,0.8-0.5,0.8-0.7
	C14,7.2,13.6,6.8,13.2,6.8z"/>
</svg>
