<?xml version="1.0" standalone="no"?><!DOCTYPE svg PUBLIC "-//W3C//DTD SVG 1.1//EN" "http://www.w3.org/Graphics/SVG/1.1/DTD/svg11.dtd"><svg t="1569206523822" class="icon" viewBox="0 0 1024 1024" version="1.1" xmlns="http://www.w3.org/2000/svg" p-id="1037" xmlns:xlink="http://www.w3.org/1999/xlink" width="200" height="200"><defs><style type="text/css"></style></defs><path d="M996.430769 960.984615h-39.384615V433.230769c0-51.2-39.384615-90.584615-82.707692-90.584615h-177.23077c-15.753846 0-27.569231 19.692308-27.56923 27.569231s15.753846 31.507692 27.56923 31.507692h173.292308c11.815385 0 23.630769 15.753846 23.630769 27.569231v527.753846H708.923077V94.523077C708.923077 43.323077 669.538462 0 622.276923 0H165.415385C118.153846 0 78.769231 43.323077 78.769231 94.523077v870.4H27.569231c-11.815385 0-27.569231 19.692308-27.569231 27.569231s15.753846 31.507692 27.569231 31.507692h964.923077c15.753846 0 27.569231-19.692308 27.56923-27.569231 3.938462-19.692308-3.938462-35.446154-23.630769-35.446154z m-346.584615-866.461538v870.4h-512V94.523077c0-11.815385 15.753846-27.569231 27.569231-27.569231H630.153846c11.815385 3.938462 19.692308 15.753846 19.692308 27.569231z" p-id="1038"></path><path d="M519.876923 476.553846H267.815385c-19.692308 0-31.507692 19.692308-31.507693 27.569231 0 19.692308 19.692308 27.569231 31.507693 27.569231h252.061538c19.692308 0 31.507692-19.692308 31.507692-27.569231 0-11.815385-15.753846-27.569231-31.507692-27.569231z m0 177.230769H267.815385c-19.692308 0-31.507692 19.692308-31.507693 27.569231 0 19.692308 11.815385 35.446154 31.507693 35.446154h252.061538c19.692308 0 31.507692-19.692308 31.507692-27.569231 0-11.815385-15.753846-35.446154-31.507692-35.446154z m0-385.96923H267.815385c-19.692308 0-31.507692 19.692308-31.507693 27.56923 0 15.753846 19.692308 31.507692 31.507693 31.507693h252.061538c19.692308 0 31.507692-19.692308 31.507692-27.569231 0-15.753846-15.753846-31.507692-31.507692-31.507692z" p-id="1039"></path></svg>