<?xml version="1.0" encoding="utf-8"?>
<!-- Generator: Adobe Illustrator 23.0.0, SVG Export Plug-In . SVG Version: 6.00 Build 0)  -->
<svg version="1.1" id="图层_1" xmlns="http://www.w3.org/2000/svg" xmlns:xlink="http://www.w3.org/1999/xlink" x="0px" y="0px"
	 viewBox="0 0 57 57" style="enable-background:new 0 0 57 57;" xml:space="preserve">
<style type="text/css">
	.st0{fill:#999999;}
</style>
<path class="st0" d="M28.5,56.5c15.5,0,28-12.6,28-28s-12.6-28-28-28s-28,12.6-28,28S13,56.5,28.5,56.5z M18.6,27l13.9-14
	c0.4-0.4,1-0.6,1.5-0.6s1.1,0.2,1.5,0.6c0.9,0.9,0.9,2.2,0,3.1L23.1,28.5l12.4,12.3c0.9,0.9,0.9,2.2,0,3c-0.9,0.9-2.2,0.9-3,0
	L18.6,30C18.2,29.5,18,29,18,28.4C18,28,18.2,27.4,18.6,27L18.6,27z"/>
</svg>
