<?xml version="1.0" standalone="no"?><!DOCTYPE svg PUBLIC "-//W3C//DTD SVG 1.1//EN" "http://www.w3.org/Graphics/SVG/1.1/DTD/svg11.dtd"><svg t="1566453305408" class="icon" viewBox="0 0 1024 1024" version="1.1" xmlns="http://www.w3.org/2000/svg" p-id="3579" width="28" height="28" xmlns:xlink="http://www.w3.org/1999/xlink"><defs><style type="text/css"></style></defs><path d="M768 352h-12.8v-51.2C755.2 166.4 646.4 57.6 512 57.6S268.8 166.4 268.8 300.8v51.2H256c-64 0-115.2 51.2-115.2 115.2v384c0 64 51.2 115.2 115.2 115.2h512c64 0 115.2-51.2 115.2-115.2v-384c0-64-51.2-115.2-115.2-115.2z m-435.2-51.2c0-102.4 83.2-179.2 179.2-179.2 102.4 0 179.2 83.2 179.2 179.2v51.2H332.8v-51.2z m486.4 550.4c0 12.8-6.4 25.6-12.8 38.4-12.8 12.8-25.6 12.8-38.4 12.8H256c-12.8 0-25.6-6.4-38.4-12.8-12.8-12.8-12.8-25.6-12.8-38.4v-384c0-32 25.6-51.2 51.2-51.2h512c32 0 51.2 25.6 51.2 51.2v384zM512 544c-19.2 0-32 12.8-32 32v172.8c0 19.2 12.8 32 32 32s32-12.8 32-32V576c0-19.2-12.8-32-32-32z" p-id="3580" fill="#999999"></path></svg>