<?xml version="1.0" standalone="no"?><!DOCTYPE svg PUBLIC "-//W3C//DTD SVG 1.1//EN" "http://www.w3.org/Graphics/SVG/1.1/DTD/svg11.dtd"><svg t="1572234685582" class="icon" viewBox="0 0 1024 1024" version="1.1" xmlns="http://www.w3.org/2000/svg" p-id="1664" width="34" height="34" xmlns:xlink="http://www.w3.org/1999/xlink"><defs><style type="text/css"></style></defs><path d="M710.1 893.5H268c-48.2 0-87.5-39.3-87.5-87.5V218c0-48.2 39.3-87.5 87.5-87.5h442.2c48.2 0 87.5 39.3 87.5 87.5v292.3c0 9.7-7.8 17.5-17.5 17.5s-17.5-7.8-17.5-17.5V218c0-29-23.5-52.5-52.5-52.5H268c-29 0-52.5 23.5-52.5 52.5v588c0 29 23.5 52.5 52.5 52.5h442.2c29 0 52.5-23.5 52.5-52.5v-45.5c0-9.7 7.8-17.5 17.5-17.5s17.5 7.8 17.5 17.5V806c-0.1 48.2-39.3 87.5-87.6 87.5z" p-id="1665"></path><path d="M597.6 524.1h-210c-29 0-52.5-23.5-52.5-52.5V291.5c0-29 23.5-52.5 52.5-52.5h210c29 0 52.5 23.5 52.5 52.5v180.1c0 29-23.6 52.5-52.5 52.5zM387.6 274c-9.6 0-17.5 7.9-17.5 17.5v180.1c0 9.6 7.9 17.5 17.5 17.5h210c9.6 0 17.5-7.9 17.5-17.5V291.5c0-9.6-7.9-17.5-17.5-17.5h-210zM863.9 698.7H388.7c-29.6 0-53.7-24.1-53.7-53.7s24.1-53.7 53.7-53.7h475.1c29.6 0 53.7 24.1 53.7 53.7s-24.1 53.7-53.6 53.7z m-475.2-72.4c-10.3 0-18.7 8.4-18.7 18.7s8.4 18.7 18.7 18.7h475.1c10.3 0 18.7-8.4 18.7-18.7s-8.4-18.7-18.7-18.7H388.7z" p-id="1666"></path></svg>