<?xml version="1.0" standalone="no"?><!DOCTYPE svg PUBLIC "-//W3C//DTD SVG 1.1//EN" "http://www.w3.org/Graphics/SVG/1.1/DTD/svg11.dtd"><svg t="1566453630570" class="icon" viewBox="0 0 1024 1024" version="1.1" xmlns="http://www.w3.org/2000/svg" p-id="6901" width="32" height="32" xmlns:xlink="http://www.w3.org/1999/xlink"><defs><style type="text/css"></style></defs><path d="M530.8416 531.456c21.4016 0 148.8896 3.3792 224.768 83.456 10.0352 10.4448 26.8288 11.3664 37.376 1.2288 10.4448-10.0352 11.3664-26.8288 1.2288-37.376-42.8032-45.2608-97.28-70.0416-146.3296-83.8656 59.1872-39.424 98.0992-106.496 98.0992-182.8864 0.4096-120.832-98.0992-219.3408-218.9312-219.3408-121.2416 0-219.3408 98.6112-219.3408 219.3408 0 77.2096 39.8336 145.1008 100.2496 184.1152-83.456 21.8112-151.4496 61.6448-201.728 119.5008-45.2608 51.6096-76.288 117.8624-90.624 192.512-10.4448 56.2176-7.9872 96.8704-7.5776 98.6112 0.8192 13.824 12.5952 24.7808 26.4192 24.7808h2.048c14.6432-1.2288 25.6-13.824 24.7808-28.5696 0-1.2288-9.216-144.6912 85.0944-252.5184 62.8736-71.68 157.696-112.0256 281.8048-119.5008 1.024 0.512 1.8432 0.512 2.6624 0.512zM360.5504 312.0128c0-91.8528 74.6496-166.5024 166.5024-166.5024S693.6576 220.16 693.6576 312.0128c0 90.2144-72.192 164.0448-161.8944 166.0928h-4.608c-91.9552 0-166.6048-74.6496-166.6048-166.0928z m249.9584 429.9776c0 14.6432 11.776 26.4192 26.4192 26.4192h252.928c14.6432 0 26.4192-11.776 26.4192-26.4192s-11.776-26.4192-26.4192-26.4192H636.928c-14.2336-0.4096-26.4192 11.6736-26.4192 26.4192zM889.856 878.6944H636.928c-14.6432 0-26.4192 11.776-26.4192 26.4192s11.776 26.4192 26.4192 26.4192h252.928c14.6432 0 26.4192-11.776 26.4192-26.4192 0.1024-14.6432-11.6736-26.4192-26.4192-26.4192z m0 0" fill="#A2A3A3" p-id="6902"></path></svg>