<?xml version="1.0" encoding="utf-8"?>
<!-- Generator: Adobe Illustrator 23.0.0, SVG Export Plug-In . SVG Version: 6.00 Build 0)  -->
<svg version="1.1" id="图层_1" xmlns="http://www.w3.org/2000/svg" xmlns:xlink="http://www.w3.org/1999/xlink" x="0px" y="0px"
	 viewBox="0 0 26 26" style="enable-background:new 0 0 26 26;" xml:space="preserve">
<style type="text/css">
	.st0{fill:#666666;}
</style>
<path class="st0" d="M13,0C5.8,0,0,5.8,0,13s5.8,13,13,13c7.2,0,13-5.8,13-13S20.2,0,13,0z M13,24.5C6.6,24.5,1.5,19.4,1.5,13
	S6.6,1.5,13,1.5c6.4,0,11.5,5.1,11.5,11.5S19.4,24.5,13,24.5z"/>
<g>
	<path class="st0" d="M18.1,10.2c0,1.3-0.4,2.4-1.1,3.1c-0.8,0.8-1.8,1.1-3.2,1.1h-2.4V20H9.5v-14h4.3c1.4,0,2.4,0.4,3.2,1.1
		C17.7,7.9,18.1,8.9,18.1,10.2z M16.2,10.2c0-1-0.2-1.7-0.7-2.1c-0.5-0.4-1.2-0.6-2.2-0.6h-1.9v5.4h1.9c1,0,1.7-0.2,2.2-0.6
		C16,12,16.2,11.3,16.2,10.2z"/>
</g>
</svg>
