<?xml version="1.0" standalone="no"?><!DOCTYPE svg PUBLIC "-//W3C//DTD SVG 1.1//EN" "http://www.w3.org/Graphics/SVG/1.1/DTD/svg11.dtd"><svg t="1573723940208" class="icon" viewBox="0 0 1024 1024" version="1.1" xmlns="http://www.w3.org/2000/svg" p-id="6063" width="30" height="30" xmlns:xlink="http://www.w3.org/1999/xlink"><defs><style type="text/css"></style></defs><path d="M601.88 615.183h40.164v39.909H601.88v-39.909zM701.14 615.183h40.165v39.909H701.14v-39.909z" fill="#bfbfbf" p-id="6064"></path><path d="M512 63.646c-247 0-447.231 200.23-447.231 447.23 0 246.999 200.232 447.232 447.23 447.232 247 0 447.23-200.233 447.23-447.232 0-247-200.23-447.23-447.23-447.23zM789.144 682.72s-1.876 36.328-37.863 41.444H276.297s-28.481-1.706-34.11-38.545l-1.056-218.816h548.014V682.72z m0-353.296v67.026l-548.014-0.27 1.056-68.803c5.884-29.42 34.281-30.187 34.281-30.187h473.28c39.908 4.093 39.397 32.234 39.397 32.234z" fill="#bfbfbf" p-id="6065"></path><path d="M651.254 615.183h40.165v39.909h-40.165v-39.909z" fill="#bfbfbf" p-id="6066"></path></svg>