<?xml version="1.0" encoding="utf-8"?>
<!-- Generator: Adobe Illustrator 23.0.0, SVG Export Plug-In . SVG Version: 6.00 Build 0)  -->
<svg version="1.1" id="图层_1" xmlns="http://www.w3.org/2000/svg" xmlns:xlink="http://www.w3.org/1999/xlink" x="0px" y="0px"
	 viewBox="0 0 64 64" style="enable-background:new 0 0 64 64;" xml:space="preserve">
<style type="text/css">
	.st0{fill:#3CC56D;}
</style>
<path class="st0" d="M32,64C14.3,64,0,49.7,0,32S14.3,0,32,0s32,14.3,32,32S49.7,64,32,64z M45.4,21.2L27.1,38.3l-7.9-7.5
	c-1.3-1.2-3.3-1.2-4.5,0s-1.2,3.3,0,4.5c0,0,0.1,0.1,0.1,0.1L24.9,45c1.2,1.2,3.2,1.2,4.4,0l20.5-19.2c1.3-1.2,1.4-3.2,0.3-4.5
	c-1.2-1.3-3.2-1.4-4.5-0.3C45.5,21.1,45.4,21.1,45.4,21.2L45.4,21.2z"/>
</svg>
