<?xml version="1.0" encoding="utf-8"?>
<!-- Generator: Adobe Illustrator 23.0.0, SVG Export Plug-In . SVG Version: 6.00 Build 0)  -->
<svg version="1.1" id="图层_1" xmlns="http://www.w3.org/2000/svg" xmlns:xlink="http://www.w3.org/1999/xlink" x="0px" y="0px"
	 viewBox="0 0 64 64" style="enable-background:new 0 0 64 64;" xml:space="preserve">
<style type="text/css">
	.st0{fill:#F95B47;}
	.st1{fill:#FFFFFF;}
</style>
<circle class="st0" cx="32" cy="32" r="32"/>
<g>
	<path class="st1" d="M42,45.5L18.5,22.1c-1-1-1-2.6,0-3.5l0,0c1-1,2.6-1,3.5,0l23.4,23.4c1,1,1,2.6,0,3.5l0,0
		C44.5,46.5,42.9,46.5,42,45.5z"/>
	<path class="st1" d="M22.1,45.5l23.4-23.4c1-1,1-2.6,0-3.5l0,0c-1-1-2.6-1-3.5,0L18.5,41.9c-1,1-1,2.6,0,3.5h0
		C19.5,46.5,21.1,46.5,22.1,45.5z"/>
</g>
<g>
	
		<image style="overflow:visible;" width="43" height="57" xlink:href="D9B5197A.jpg"  transform="matrix(0.7499 0 0 0.7499 -8162 -8162)">
	</image>
</g>
</svg>
