<?xml version="1.0" encoding="utf-8"?>
<!-- Generator: Adobe Illustrator 23.0.0, SVG Export Plug-In . SVG Version: 6.00 Build 0)  -->
<svg version="1.1" id="图层_1" xmlns="http://www.w3.org/2000/svg" xmlns:xlink="http://www.w3.org/1999/xlink" x="0px" y="0px"
	 viewBox="0 0 57 57" style="enable-background:new 0 0 57 57;" xml:space="preserve">
<style type="text/css">
	.st0{fill:#999999;}
</style>
<path class="st0" d="M28.5,0.5c-15.5,0-28,12.6-28,28s12.6,28,28,28s28-12.6,28-28S44,0.5,28.5,0.5z M38.4,30L24.5,44
	c-0.4,0.4-1,0.6-1.5,0.6s-1.1-0.2-1.5-0.6c-0.9-0.9-0.9-2.2,0-3.1l12.4-12.4L21.5,16.2c-0.9-0.9-0.9-2.2,0-3c0.9-0.9,2.2-0.9,3,0
	L38.4,27c0.4,0.4,0.6,0.9,0.6,1.5C39,29,38.8,29.6,38.4,30L38.4,30z"/>
</svg>
