<?xml version="1.0" encoding="utf-8"?>
<!-- Generator: Adobe Illustrator 23.0.0, SVG Export Plug-In . SVG Version: 6.00 Build 0)  -->
<svg version="1.1" id="图层_1" xmlns="http://www.w3.org/2000/svg" xmlns:xlink="http://www.w3.org/1999/xlink" x="0px" y="0px"
	 viewBox="0 0 50 54.2" style="enable-background:new 0 0 50 54.2;" xml:space="preserve">
<style type="text/css">
	.st0{fill:#666666;}
</style>
<path class="st0" d="M32.4,50.4C32.4,50.4,32.4,50.4,32.4,50.4c-0.9,0-1.8-0.4-2.3-1c-0.8-0.8-3.2-3-5.2-3c-2,0-4.5,2.2-5.2,3
	c-0.6,0.6-1.4,1-2.3,1c-0.4,0-0.8-0.1-1.2-0.2l-0.1,0L10,46.6l-0.1,0c-1.1-0.8-1.5-2.3-1-3.5c0,0,0.6-1.3,0.6-2.5
	c0-3.5-2.9-6.4-6.4-6.4H2.9c0,0,0,0,0,0c-1,0-1.8-0.9-2.1-2.3c0-0.1-0.5-2.8-0.5-4.9c0-2.1,0.5-4.7,0.5-4.9c0.3-1.4,1.1-2.3,2.1-2.3
	h0.2c3.5,0,6.4-2.9,6.4-6.4C9.6,12.3,9,11,9,11c-0.5-1.2-0.1-2.7,1-3.5l0.1,0l6.4-3.5l0.1,0c0.4-0.2,0.8-0.2,1.2-0.2
	c0.9,0,1.8,0.4,2.3,1c0.8,0.8,3.2,2.9,5.1,2.9c1.9,0,4.3-2,5.1-2.8c0.6-0.6,1.4-0.9,2.3-0.9c0.4,0,0.8,0.1,1.2,0.2l0.1,0l6.2,3.4
	l0.1,0c1.1,0.8,1.5,2.3,1,3.5c0,0-0.6,1.3-0.6,2.5c0,3.5,2.9,6.4,6.4,6.4h0.2c1,0,1.9,0.9,2.1,2.3c0,0.1,0.5,2.8,0.5,4.9
	s-0.5,4.7-0.5,4.9c-0.3,1.4-1.1,2.3-2.1,2.3h-0.2c-3.5,0-6.4,2.9-6.4,6.4c0,1.2,0.6,2.5,0.6,2.5c0.5,1.2,0.1,2.7-1,3.5l-0.1,0
	l-6.3,3.5l-0.1,0C33.2,50.3,32.8,50.4,32.4,50.4z M32.2,47.4c0,0,0.1,0,0.2,0c0,0,0,0,0,0l5.9-3.2c-0.1-0.3-0.8-1.9-0.8-3.6
	c0-5,3.9-9.1,8.9-9.3c0.1-0.4,0.5-2.6,0.5-4.2c0-1.7-0.4-3.9-0.5-4.2c-4.9-0.3-8.9-4.3-8.9-9.3c0-1.7,0.7-3.3,0.8-3.6l-5.8-3.2
	c0,0,0,0,0,0c-0.1,0-0.2,0-0.2,0.1c-0.1,0.1-0.9,0.9-2.1,1.8c-1.8,1.3-3.5,1.9-5,1.9c-1.6,0-3.3-0.6-5-1.9c-1.2-0.9-2.1-1.7-2.2-1.8
	c0,0-0.1-0.1-0.2-0.1c0,0,0,0,0,0l-6,3.3c0.1,0.3,0.8,1.9,0.8,3.6c0,5-3.9,9.1-8.9,9.3c-0.1,0.4-0.5,2.6-0.5,4.2
	c0,1.7,0.4,3.9,0.5,4.2c4.9,0.3,8.9,4.3,8.9,9.3c0,1.7-0.7,3.3-0.8,3.6l5.7,3.2c0,0,0,0,0,0c0.1,0,0.2,0,0.2,0c0.1-0.1,1-1,2.2-1.9
	c1.8-1.3,3.5-2,5.1-2c1.6,0,3.3,0.7,5.2,2C31.3,46.4,32.1,47.3,32.2,47.4z M24.9,35.5c-4.7,0-8.6-3.8-8.6-8.6s3.8-8.6,8.6-8.6
	s8.6,3.8,8.6,8.6C33.4,31.7,29.6,35.5,24.9,35.5z M24.9,21.3c-3.1,0-5.7,2.5-5.7,5.7s2.5,5.7,5.7,5.7s5.7-2.5,5.7-5.7
	C30.5,23.9,28,21.3,24.9,21.3z"/>
</svg>
