<?xml version="1.0" encoding="utf-8"?>
<!-- Generator: Adobe Illustrator 23.0.0, SVG Export Plug-In . SVG Version: 6.00 Build 0)  -->
<svg version="1.1" id="图层_1" xmlns="http://www.w3.org/2000/svg" xmlns:xlink="http://www.w3.org/1999/xlink" x="0px" y="0px"
	 viewBox="0 0 26 26" style="enable-background:new 0 0 26 26;" xml:space="preserve">
<style type="text/css">
	.st0{fill:#666666;}
</style>
<path class="st0" d="M13,0.5c-6.3,0-13,2.1-13,6v12.2c0,3.6,6,6.7,13,6.7c7,0,13-3.1,13-6.7V6.5C26,2.6,19.3,0.5,13,0.5z M24.5,19.1
	c0,1.9-4.6,4.8-11.5,4.8c-6.9,0-11.5-2.9-11.5-4.8v-3.7C4,17.3,8.2,18.5,13,18.5c4.8,0,9-1.2,11.5-3.1V19.1z M24.5,12.4
	c0,2.1-5,4.6-11.5,4.6c-6.5,0-11.5-2.5-11.5-4.6V8.9c2.6,1.8,7.2,2.7,11.5,2.7c4.3,0,8.9-0.9,11.5-2.7V12.4z M13,10.1
	c-7.1,0-11.5-2.3-11.5-4c0-1.7,4.4-4,11.5-4c7.1,0,11.5,2.3,11.5,4C24.5,7.8,20.1,10.1,13,10.1z"/>
</svg>
