<?xml version="1.0" standalone="no"?><!DOCTYPE svg PUBLIC "-//W3C//DTD SVG 1.1//EN" "http://www.w3.org/Graphics/SVG/1.1/DTD/svg11.dtd"><svg t="1573612793304" class="icon" viewBox="0 0 1024 1024" version="1.1" xmlns="http://www.w3.org/2000/svg" p-id="1521" xmlns:xlink="http://www.w3.org/1999/xlink" width="200" height="200"><defs><style type="text/css"></style></defs><path d="M512 19.692308C263.876923 19.692308 0 102.4 0 256v480.492308c0 141.784615 236.307692 263.876923 512 263.876923s512-122.092308 512-263.876923V256c0-153.6-263.876923-236.307692-512-236.307692z m452.923077 732.553846c0 74.830769-181.169231 189.046154-452.923077 189.046154S59.076923 827.076923 59.076923 752.246154v-145.723077C157.538462 681.353846 322.953846 728.615385 512 728.615385s354.461538-47.261538 452.923077-122.092308v145.723077z m0-263.876923c0 82.707692-196.923077 181.169231-452.923077 181.169231S59.076923 571.076923 59.076923 488.369231V350.523077c102.4 70.892308 283.569231 106.338462 452.923077 106.338461s350.523077-35.446154 452.923077-106.338461v137.846154zM512 397.784615c-279.630769 0-452.923077-90.584615-452.923077-157.538461 0-66.953846 173.292308-157.538462 452.923077-157.538462s452.923077 90.584615 452.923077 157.538462c0 66.953846-173.292308 157.538462-452.923077 157.538461z" p-id="1522"></path></svg>