<?xml version="1.0" standalone="no"?><!DOCTYPE svg PUBLIC "-//W3C//DTD SVG 1.1//EN" "http://www.w3.org/Graphics/SVG/1.1/DTD/svg11.dtd"><svg t="1573612856860" class="icon" viewBox="0 0 1024 1024" version="1.1" xmlns="http://www.w3.org/2000/svg" p-id="1632" xmlns:xlink="http://www.w3.org/1999/xlink" width="200" height="200"><defs><style type="text/css"></style></defs><path d="M512 0C228.430769 0 0 228.430769 0 512s228.430769 512 512 512 512-228.430769 512-512S795.569231 0 512 0z m0 964.923077C259.938462 964.923077 59.076923 764.061538 59.076923 512S259.938462 59.076923 512 59.076923 964.923077 259.938462 964.923077 512 764.061538 964.923077 512 964.923077z" p-id="1633"></path><path d="M712.861538 401.723077c0 51.2-15.753846 94.523077-43.323076 122.092308-31.507692 31.507692-70.892308 43.323077-126.03077 43.323077h-94.523077V787.692308H374.153846V236.307692h169.353846c55.138462 0 94.523077 15.753846 126.03077 43.323077 27.569231 31.507692 43.323077 70.892308 43.323076 122.092308z m-74.830769 0c0-39.384615-7.876923-66.953846-27.569231-82.707692-19.692308-15.753846-47.261538-23.630769-86.646153-23.63077h-74.83077v212.676923h74.83077c39.384615 0 66.953846-7.876923 86.646153-23.630769 19.692308-11.815385 27.569231-39.384615 27.569231-82.707692z" p-id="1634"></path></svg>