<?xml version="1.0" standalone="no"?><!DOCTYPE svg PUBLIC "-//W3C//DTD SVG 1.1//EN" "http://www.w3.org/Graphics/SVG/1.1/DTD/svg11.dtd"><svg t="1573612086385" class="icon" viewBox="0 0 1024 1024" version="1.1" xmlns="http://www.w3.org/2000/svg" p-id="1071" xmlns:xlink="http://www.w3.org/1999/xlink" width="200" height="200"><defs><style type="text/css"></style></defs><path d="M445.046154 397.784615H382.030769c-15.753846 0-31.507692 7.876923-31.507692 27.569231s11.815385 31.507692 31.507692 31.507692h110.276923v102.4H382.030769c-15.753846 0-31.507692 7.876923-31.507692 27.569231 0 19.692308 11.815385 31.507692 31.507692 31.507693h110.276923v149.661538c0 15.753846 11.815385 31.507692 31.507693 31.507692s27.569231-11.815385 27.56923-31.507692v-149.661538h110.276923c15.753846 0 31.507692-7.876923 31.507693-31.507693 0-19.692308-11.815385-27.569231-31.507693-27.569231H551.384615v-102.4h110.276923c15.753846 0 31.507692-11.815385 31.507693-31.507692s-11.815385-27.569231-31.507693-27.569231h-63.015384" p-id="1072"></path><path d="M996.430769 374.153846l27.569231-3.938461V110.276923c0-35.446154-27.569231-63.015385-63.015385-63.015385H63.015385C27.569231 43.323077 0 74.830769 0 110.276923v259.938462l27.569231 3.938461c70.892308 7.876923 129.969231 66.953846 129.969231 145.723077S102.4 657.723077 27.569231 665.6L0 669.538462v259.938461c0 35.446154 27.569231 63.015385 63.015385 63.015385h894.030769c35.446154 0 63.015385-27.569231 63.015384-63.015385V669.538462l-27.56923-3.938462c-70.892308-7.876923-129.969231-66.953846-129.969231-145.723077s63.015385-137.846154 133.907692-145.723077z m-189.046154 145.723077c0 98.461538 63.015385 177.230769 153.6 200.861539v208.738461c0 3.938462 0 3.938462-3.938461 3.938462H63.015385c-3.938462 0-3.938462-3.938462-3.938462-3.938462v-208.738461c86.646154-19.692308 153.6-106.338462 153.6-200.861539 0-98.461538-63.015385-177.230769-153.6-200.861538V110.276923c0-3.938462 0-3.938462 3.938462-3.938461h897.96923c3.938462 0 3.938462 3.938462 3.938462 3.938461v208.738462c-94.523077 23.630769-157.538462 102.4-157.538462 200.861538z" p-id="1073"></path><path d="M685.292308 279.630769c11.815385 11.815385 11.815385 31.507692 0 43.323077l-129.969231 129.969231c-11.815385 11.815385-31.507692 11.815385-43.323077 0-11.815385-11.815385-11.815385-31.507692 0-43.323077l129.969231-129.969231c11.815385-11.815385 31.507692-11.815385 43.323077 0z" p-id="1074"></path><path d="M358.4 279.630769c-11.815385 11.815385-11.815385 31.507692 0 43.323077l129.969231 129.969231c11.815385 11.815385 31.507692 11.815385 43.323077 0 11.815385-11.815385 11.815385-31.507692 0-43.323077l-129.969231-129.969231c-15.753846-11.815385-31.507692-11.815385-43.323077 0z" p-id="1075"></path></svg>