<?xml version="1.0" encoding="utf-8"?>
<!-- Generator: Adobe Illustrator 23.0.0, SVG Export Plug-In . SVG Version: 6.00 Build 0)  -->
<svg version="1.1" id="图层_1" xmlns="http://www.w3.org/2000/svg" xmlns:xlink="http://www.w3.org/1999/xlink" x="0px" y="0px"
	 viewBox="0 0 26 26" style="enable-background:new 0 0 26 26;" xml:space="preserve">
<style type="text/css">
	.st0{fill:#7F7F7F;}
</style>
<path class="st0" d="M11.3,10.1H9.7c-0.4,0-0.8,0.2-0.8,0.7s0.3,0.8,0.8,0.8h2.8v2.6H9.7c-0.4,0-0.8,0.2-0.8,0.7
	c0,0.5,0.3,0.8,0.8,0.8h2.8v3.8c0,0.4,0.3,0.8,0.8,0.8c0.5,0,0.7-0.3,0.7-0.8v-3.8h2.8c0.4,0,0.8-0.2,0.8-0.8c0-0.5-0.3-0.7-0.8-0.7
	H14v-2.6h2.8c0.4,0,0.8-0.3,0.8-0.8s-0.3-0.7-0.8-0.7h-1.6"/>
<path d="M13.2,9.6"/>
<path class="st0" d="M25.3,9.5L26,9.4V2.8c0-0.9-0.7-1.6-1.6-1.6H1.6C0.7,1.1,0,1.9,0,2.8v6.6l0.7,0.1C2.5,9.7,4,11.2,4,13.2
	s-1.4,3.5-3.3,3.7L0,17v6.6c0,0.9,0.7,1.6,1.6,1.6h22.7c0.9,0,1.6-0.7,1.6-1.6V17l-0.7-0.1c-1.8-0.2-3.3-1.7-3.3-3.7
	S23.5,9.7,25.3,9.5z M20.5,13.2c0,2.5,1.6,4.5,3.9,5.1v5.3c0,0.1,0,0.1-0.1,0.1H1.6c-0.1,0-0.1-0.1-0.1-0.1v-5.3
	c2.2-0.5,3.9-2.7,3.9-5.1c0-2.5-1.6-4.5-3.9-5.1V2.8c0-0.1,0-0.1,0.1-0.1h22.8c0.1,0,0.1,0.1,0.1,0.1v5.3
	C22.1,8.7,20.5,10.7,20.5,13.2z"/>
<g>
	<path class="st0" d="M17.4,7.1L17.4,7.1c0.3,0.3,0.3,0.8,0,1.1l-3.3,3.3c-0.3,0.3-0.8,0.3-1.1,0l0,0c-0.3-0.3-0.3-0.8,0-1.1
		l3.3-3.3C16.6,6.8,17.1,6.8,17.4,7.1z"/>
	<path class="st0" d="M9.1,7.1L9.1,7.1c-0.3,0.3-0.3,0.8,0,1.1l3.3,3.3c0.3,0.3,0.8,0.3,1.1,0l0,0c0.3-0.3,0.3-0.8,0-1.1l-3.3-3.3
		C9.8,6.8,9.4,6.8,9.1,7.1z"/>
</g>
</svg>
