<?xml version="1.0" encoding="utf-8"?>
<!-- Generator: Adobe Illustrator 23.0.0, SVG Export Plug-In . SVG Version: 6.00 Build 0)  -->
<svg version="1.1" id="图层_1" xmlns="http://www.w3.org/2000/svg" xmlns:xlink="http://www.w3.org/1999/xlink" x="0px" y="0px"
	 viewBox="0 0 24 24" style="enable-background:new 0 0 24 24;" xml:space="preserve">
<style type="text/css">
	.st0{fill:#666666;}
</style>
<path class="st0" d="M4.6,21.1c-1.1,0-2.1-0.8-2.1-2.1V4.7c0-1.3,0.9-2.5,2.1-2.5h9.8c1.1,0,2.1,1,2.1,2.3v1.3
	c0,0.2-0.2,0.7-0.7,0.7c-0.2,0-0.7-0.4-0.7-0.7V4.4c0-0.6-0.2-0.7-0.7-0.7H4.6c-0.6,0-0.8,0.4-0.8,1v14c0,0.6,0.2,1.1,0.8,1.1h9.7
	c0.4,0,0.7-0.2,0.7-0.7v-1.3c0-0.2,0.4-0.7,0.7-0.7s0.7,0.2,0.7,0.6v1.1c0,1.3-0.9,2.5-2.1,2.5L4.6,21.1z M17.4,16.1
	c-0.2,0-0.2,0-0.4-0.2c-0.2-0.2-0.2-0.7,0-1l2.3-2.5H9.5c-0.4-0.2-0.7-0.4-0.7-0.8s0.4-0.7,0.7-0.7h9.8v0.2L17,8.6
	c-0.3-0.2-0.3-0.6,0-0.9c0-0.2,0.2-0.2,0.4-0.2c0.2,0,0.2,0,0.4,0.2l3.4,3.5c0.2,0.2,0.2,0.2,0.2,0.6c0,0.2,0,0.4-0.2,0.4l-3.4,3.5
	C17.7,15.9,17.6,16.1,17.4,16.1z"/>
</svg>
