<?xml version="1.0" encoding="utf-8"?>
<!-- Generator: Adobe Illustrator 23.0.0, SVG Export Plug-In . SVG Version: 6.00 Build 0)  -->
<svg version="1.1" id="图层_1" xmlns="http://www.w3.org/2000/svg" xmlns:xlink="http://www.w3.org/1999/xlink" x="0px" y="0px"
	 viewBox="0 0 14 14" style="enable-background:new 0 0 14 14;" xml:space="preserve">
<style type="text/css">
	.st0{fill:#F8AC59;}
	.st1{fill:#FFFFFF;}
</style>
<path class="st0" d="M6.7,1.6L0.6,12.1c-0.2,0.3,0,0.6,0.4,0.6h12.2c0.3,0,0.5-0.3,0.4-0.6L7.4,1.6C7.3,1.3,6.8,1.3,6.7,1.6z"/>
<g>
	<path class="st1" d="M7,9.6L7,9.6c-0.3,0-0.5-0.2-0.5-0.5V5.2c0-0.3,0.2-0.5,0.5-0.5h0c0.3,0,0.5,0.2,0.5,0.5v3.9
		C7.5,9.3,7.3,9.6,7,9.6z"/>
	<path class="st1" d="M7,11.4L7,11.4c-0.3,0-0.5-0.2-0.5-0.5v0c0-0.3,0.2-0.5,0.5-0.5h0c0.3,0,0.5,0.2,0.5,0.5v0
		C7.5,11.2,7.3,11.4,7,11.4z"/>
</g>
</svg>
