<?xml version="1.0" standalone="no"?><!DOCTYPE svg PUBLIC "-//W3C//DTD SVG 1.1//EN" "http://www.w3.org/Graphics/SVG/1.1/DTD/svg11.dtd"><svg t="1569206964609" class="icon" viewBox="0 0 1024 1024" version="1.1" xmlns="http://www.w3.org/2000/svg" p-id="1487" xmlns:xlink="http://www.w3.org/1999/xlink" width="200" height="200"><defs><style type="text/css"></style></defs><path d="M998.862102 55.055391H23.595168c-11.797584 0-23.595168-7.865056-23.595168-27.527695C0 11.797584 11.797584 0 23.595168 0h975.266934c15.730112 0 23.595168 11.797584 23.595167 27.527696 0 19.66264-7.865056 27.527696-23.595167 27.527695z" p-id="1488"></path><path d="M869.088679 1022.457269c-7.865056 0-15.730112-3.932528-19.66264-11.797584L786.505592 939.874182l-70.785504 74.718031c-3.932528 3.932528-11.797584 7.865056-19.662639 7.865056s-15.730112-3.932528-19.66264-7.865056l-74.718031-78.650559-70.785504 74.718031c-3.932528 7.865056-11.797584 11.797584-19.662639 11.797584s-15.730112-3.932528-19.66264-7.865056l-74.718031-78.650559-70.785504 74.718031c-3.932528 7.865056-11.797584 11.797584-19.662639 11.797584s-15.730112-3.932528-19.66264-7.865056l-74.718031-74.718031-70.785504 74.718031c-7.865056 7.865056-19.66264 11.797584-31.460223 7.865056-11.797584-3.932528-15.730112-15.730112-15.730112-27.527695V27.527696c0-15.730112 11.797584-27.527696 27.527696-27.527696h727.517672c15.730112 0 27.527696 11.797584 27.527696 27.527696v967.401878c0 11.797584-7.865056 23.595168-19.66264 27.527695h-7.865056zM232.01915 873.021207c7.865056 0 15.730112 3.932528 19.662639 7.865056l74.718032 74.718031 70.785503-78.650559c3.932528-3.932528 11.797584-7.865056 19.66264-7.865056s15.730112 3.932528 19.662639 7.865056l74.718032 78.650559 70.785503-74.718031c3.932528-3.932528 11.797584-7.865056 19.66264-7.865056s15.730112 3.932528 19.662639 7.865056l74.718032 78.650559 70.785503-74.718031c3.932528-7.865056 11.797584-11.797584 19.66264-7.865056 7.865056 0 15.730112 3.932528 19.66264 11.797584l31.460223 39.325279V55.055391h-668.529753v869.088679l43.257808-43.257807c3.932528-3.932528 11.797584-7.865056 19.66264-7.865056z" p-id="1489"></path><path d="M668.529753 652.799641h-125.840895v86.515615h-55.055391v-86.515615h-117.975839v-55.055391h117.975839v-70.785504h-117.975839v-58.987919H471.903355L346.06246 291.007069l47.190336-31.460224 121.908367 169.098703 129.773422-173.031231 43.257808 35.392752-133.705951 176.963758H668.529753v58.987919h-125.840895v70.785504H668.529753v55.055391z" p-id="1490"></path></svg>