<?xml version="1.0" encoding="utf-8"?>
<!-- Generator: Adobe Illustrator 23.0.0, SVG Export Plug-In . SVG Version: 6.00 Build 0)  -->
<svg version="1.1" id="图层_1" xmlns="http://www.w3.org/2000/svg" xmlns:xlink="http://www.w3.org/1999/xlink" x="0px" y="0px"
	 viewBox="0 0 26 26" style="enable-background:new 0 0 26 26;" xml:space="preserve">
<style type="text/css">
	.st0{fill:#666666;}
	.st1{enable-background:new    ;}
</style>
<path class="st0" d="M25.4,1.4H0.6C0.3,1.4,0,1.2,0,0.7l0,0C0,0.3,0.3,0,0.6,0h24.8C25.8,0,26,0.3,26,0.7l0,0
	C26,1.2,25.8,1.4,25.4,1.4z"/>
<path class="st0" d="M22.1,26c-0.2,0-0.4-0.1-0.5-0.3L20,23.9l-1.8,1.9c-0.1,0.1-0.3,0.2-0.5,0.2c-0.2,0-0.4-0.1-0.5-0.2l-1.9-2
	l-1.8,1.9C13.4,25.9,13.2,26,13,26c-0.2,0-0.4-0.1-0.5-0.2l-1.9-2l-1.8,1.9C8.7,25.9,8.5,26,8.3,26c-0.2,0-0.4-0.1-0.5-0.2l-1.9-1.9
	l-1.8,1.9C3.9,26,3.6,26.1,3.3,26c-0.3-0.1-0.4-0.4-0.4-0.7V0.7C2.9,0.3,3.2,0,3.6,0h18.5c0.4,0,0.7,0.3,0.7,0.7v24.6
	c0,0.3-0.2,0.6-0.5,0.7C22.3,26,22.2,26,22.1,26z M5.9,22.2c0.2,0,0.4,0.1,0.5,0.2l1.9,1.9l1.8-2c0.1-0.1,0.3-0.2,0.5-0.2
	c0.2,0,0.4,0.1,0.5,0.2l1.9,2l1.8-1.9c0.1-0.1,0.3-0.2,0.5-0.2c0.2,0,0.4,0.1,0.5,0.2l1.9,2l1.8-1.9c0.1-0.2,0.3-0.3,0.5-0.2
	c0.2,0,0.4,0.1,0.5,0.3l0.8,1V1.4H4.3v22.1l1.1-1.1C5.5,22.3,5.7,22.2,5.9,22.2C5.9,22.2,5.9,22.2,5.9,22.2z"/>
<g class="st1">
	<path class="st0" d="M17,16.6h-3.2v2.2h-1.4v-2.2h-3v-1.4h3v-1.8h-3v-1.5H12L8.8,7.4L10,6.6l3.1,4.3l3.3-4.4l1.1,0.9l-3.4,4.5H17
		v1.5h-3.2v1.8H17V16.6z"/>
</g>
</svg>
