<?xml version="1.0" encoding="utf-8"?>
<!-- Generator: Adobe Illustrator 23.0.0, SVG Export Plug-In . SVG Version: 6.00 Build 0)  -->
<svg version="1.1" id="图层_1" xmlns="http://www.w3.org/2000/svg" xmlns:xlink="http://www.w3.org/1999/xlink" x="0px" y="0px"
	 viewBox="0 0 26 26" style="enable-background:new 0 0 26 26;" xml:space="preserve">
<style type="text/css">
	.st0{fill:#666666;}
	.st1{fill:none;stroke:#666666;stroke-width:1.4173;stroke-linejoin:round;stroke-miterlimit:10;}
	.st2{font-family:'zcoolwenyiti';}
	.st3{font-size:17.3588px;}
</style>
<path class="st0" d="M25.4,1.4H0.6C0.3,1.4,0,1.2,0,0.7l0,0C0,0.3,0.3,0,0.6,0h24.8C25.8,0,26,0.3,26,0.7l0,0
	C26,1.2,25.8,1.4,25.4,1.4z"/>
<polygon class="st1" points="22.1,25.3 20,22.8 17.7,25.3 15.3,22.8 13,25.3 10.6,22.8 8.3,25.3 5.9,22.9 3.6,25.3 3.6,0.7 
	22.1,0.7 "/>
<text transform="matrix(1 0 0 1 4.1743 16.7479)" class="st0 st2 st3">￥</text>
</svg>
