<?xml version="1.0" encoding="utf-8"?>
<!-- Generator: Adobe Illustrator 23.0.0, SVG Export Plug-In . SVG Version: 6.00 Build 0)  -->
<svg version="1.1" id="图层_1" xmlns="http://www.w3.org/2000/svg" xmlns:xlink="http://www.w3.org/1999/xlink" x="0px" y="0px"
	 viewBox="0 0 26 26" style="enable-background:new 0 0 26 26;" xml:space="preserve">
<style type="text/css">
	.st0{fill:#666666;}
</style>
<path class="st0" d="M25.3,26H0.8C0.4,26,0,25.6,0,25.2v0c0-0.4,0.3-0.7,0.7-0.7h24.5c0.4,0,0.7,0.3,0.7,0.7v0
	C26,25.6,25.7,26,25.3,26z"/>
<path class="st0" d="M5.2,12.3v10.5c0,0.4-0.3,0.8-0.7,0.8h0c-0.4,0-0.7-0.3-0.7-0.8V12.3c0-0.4,0.3-0.8,0.7-0.8h0
	C4.9,11.6,5.2,11.9,5.2,12.3z"/>
<path class="st0" d="M10.8,5.3v17.5c0,0.4-0.3,0.8-0.7,0.8h0c-0.4,0-0.7-0.3-0.7-0.8V5.3c0-0.4,0.3-0.7,0.7-0.7h0
	C10.4,4.6,10.8,4.9,10.8,5.3z"/>
<path class="st0" d="M16.3,2.3v20.5c0,0.4-0.3,0.8-0.8,0.8h0c-0.4,0-0.7-0.3-0.7-0.8V2.3c0-0.4,0.3-0.7,0.7-0.7h0
	C16,1.6,16.3,1.9,16.3,2.3z"/>
<path class="st0" d="M21.8,9.3v13.5c0,0.4-0.3,0.8-0.8,0.8h0c-0.4,0-0.7-0.3-0.7-0.8V9.3c0-0.4,0.3-0.8,0.7-0.8h0
	C21.5,8.6,21.8,8.9,21.8,9.3z"/>
</svg>
