<?xml version="1.0" standalone="no"?><!DOCTYPE svg PUBLIC "-//W3C//DTD SVG 1.1//EN" "http://www.w3.org/Graphics/SVG/1.1/DTD/svg11.dtd"><svg t="1573612656809" class="icon" viewBox="0 0 1024 1024" version="1.1" xmlns="http://www.w3.org/2000/svg" p-id="1298" xmlns:xlink="http://www.w3.org/1999/xlink" width="200" height="200"><defs><style type="text/css"></style></defs><path d="M996.430769 1024H31.507692c-15.753846 0-31.507692-15.753846-31.507692-31.507692s11.815385-27.569231 27.569231-27.569231h964.923077c15.753846 0 27.569231 11.815385 27.56923 27.569231 3.938462 15.753846-7.876923 31.507692-23.630769 31.507692zM204.8 484.430769v413.538462c0 15.753846-11.815385 31.507692-27.569231 31.507692-15.753846 0-27.569231-11.815385-27.569231-31.507692V484.430769c0-15.753846 11.815385-31.507692 27.569231-31.507692 15.753846 3.938462 27.569231 15.753846 27.569231 31.507692zM425.353846 208.738462v689.230769c0 15.753846-11.815385 31.507692-27.569231 31.507692-15.753846 0-27.569231-11.815385-27.56923-31.507692V208.738462c0-15.753846 11.815385-27.569231 27.56923-27.569231 11.815385 0 27.569231 11.815385 27.569231 27.569231zM641.969231 90.584615v807.384616c0 15.753846-11.815385 31.507692-31.507693 31.507692-15.753846 0-27.569231-11.815385-27.56923-31.507692V90.584615c0-15.753846 11.815385-27.569231 27.56923-27.56923 19.692308 0 31.507692 11.815385 31.507693 27.56923zM858.584615 366.276923v531.692308c0 15.753846-11.815385 31.507692-31.507692 31.507692-15.753846 0-27.569231-11.815385-27.569231-31.507692V366.276923c0-15.753846 11.815385-31.507692 27.569231-31.507692 19.692308 3.938462 31.507692 15.753846 31.507692 31.507692z" p-id="1299"></path></svg>